HIERARCHY
ROOT Hips
{
	OFFSET 0.000000 0.000000 0.000000 
	CHANNELS 6 Xposition Yposition Zposition Yrotation Zrotation Xrotation 
	JOINT Lumbar
	{
		OFFSET 0.000000 0.000000 0.000000 
		CHANNELS 3 Zrotation Xrotation Yrotation
		JOINT Neck
		{
			OFFSET 0.000000 0.445665 0.000000 
			CHANNELS 3 Zrotation Xrotation Yrotation
			End Site
			{
				OFFSET 0.000000 0.227535 0.000000 
			}
		}
		JOINT RightShoulder
		{
			OFFSET 0.019635 0.377685 0.194865 
			CHANNELS 3 Zrotation Xrotation Yrotation
			JOINT RightElbow
			{
				OFFSET 0.000000 -0.243375 0.000000 
				CHANNELS 2 Zrotation Yrotation
				JOINT RightWrist
				{
					OFFSET 0.000000 -0.264825 0.000000 
					CHANNELS 2 Zrotation Xrotation
					End Site
					{
						OFFSET 0.006600 -0.176220 0.000990 
					}
				}
			}
		}
		JOINT LeftShoulder
		{
			OFFSET 0.019635 0.377685 -0.194865 
			CHANNELS 3 Zrotation Xrotation Yrotation
			JOINT LeftElbow
			{
				OFFSET 0.000000 -0.243375 0.000000 
				CHANNELS 2 Zrotation Yrotation
				JOINT LeftWrist
				{
					OFFSET 0.000000 -0.264825 0.000000 
					CHANNELS 2 Zrotation Xrotation
					End Site
					{
						OFFSET 0.006600 -0.176220 -0.000990 
					}
				}
			}
		}
	}
	JOINT RightHip
	{
		OFFSET 0.052140 -0.069960 0.075570 
		CHANNELS 3 Zrotation Xrotation Yrotation
		JOINT RightKnee
		{
			OFFSET 0.000000 -0.402270 0.000000 
			CHANNELS 1 Zrotation
			JOINT RightAnkle
			{
				OFFSET 0.000000 -0.404085 0.000000 
				CHANNELS 3 Zrotation Xrotation Yrotation
				End Site
				{
					OFFSET 0.204105 -0.089430 0.008415 
				}
			}
		}
	}
	JOINT LeftHip
	{
		OFFSET 0.052140 -0.069960 -0.075570 
		CHANNELS 3 Zrotation Xrotation Yrotation
		JOINT LeftKnee
		{
			OFFSET 0.000000 -0.402270 0.000000 
			CHANNELS 1 Zrotation
			JOINT LeftAnkle
			{
				OFFSET 0.000000 -0.404085 0.000000 
				CHANNELS 3 Zrotation Xrotation Yrotation
				End Site
				{
					OFFSET 0.204105 -0.089430 -0.008415 
				}
			}
		}
	}
}
MOTION
Frames: 25
Frame Time: 0.02
0.57265 0.00642 0.01067 176.255 0 -2.07834 9.53633 2.93061 -7.12412 -39.95349 4.35398 -1.05935 12.44298 -34.72431 10.59583 64.57772 16.05513 -36.6844 8.15496 62.9453 52.86111 -21.6741 58.90543 -80.38753 -16.27701 3.54991 126.72002 -5.25004 -14.57709 -80.28937 4.59743 -4.51594 -5.43757 130.40365 -13.91442 -14.69742 -117.69122 16.195 -11.75295 -5.37358
0.57243 0.00646 0.01086 176.23332 0 -2.22908 9.71666 3.01812 -7.16315 -40.02859 4.56309 -0.83109 12.68213 -34.92815 10.32273 64.84265 21.29714 -35.54122 6.91798 60.40728 52.37286 -18.899 58.2772 -80.94195 -16.43154 3.65291 126.71575 -5.04374 -13.74541 -80.1362 4.49268 -4.31435 -4.98907 130.40292 -13.91 -14.53837 -116.72125 16.06889 -10.79497 -5.58414
0.57217 0.00659 0.01111 176.22959 0 -2.42891 9.8754 3.16976 -7.19595 -40.11298 4.79097 -0.58962 13.04192 -35.15128 10.08089 64.93898 27.80595 -34.0069 5.43719 57.90414 51.6944 -16.21112 57.47743 -81.56556 -16.59529 3.74284 126.64877 -4.90499 -12.91879 -80.02035 4.42359 -4.12229 -4.54305 130.40202 -13.90452 -14.3374 -115.51689 15.92738 -9.59545 -6.00543
0.57192 0.00667 0.01131 176.2134 0 -2.60588 10.04176 3.29239 -7.22738 -40.19355 5.00914 -0.34748 13.35779 -35.37516 9.84234 65.09533 33.67381 -32.68392 4.09179 55.41331 51.08766 -13.51838 56.73181 -82.17567 -16.75855 3.8438 126.60429 -4.73413 -12.10025 -79.8898 4.33868 -3.93189 -4.11093 130.40126 -13.89988 -14.15035 -114.41353 15.78385 -8.51421 -6.30083
0.57171 0.00677 0.01157 176.21452 0 -2.78515 10.21701 3.4151 -7.27596 -40.27412 5.23306 -0.13091 13.6291 -35.56006 9.53026 65.32525 39.83849 -31.22337 2.63745 52.79582 50.53644 -10.66826 56.08277 -82.7129 -16.90581 3.92556 126.58383 -4.56852 -11.23603 -79.75213 4.25256 -3.71607 -3.6162 130.40025 -13.89377 -13.98415 -113.33212 15.68157 -7.39353 -6.71803
0.57142 0.00686 0.01174 176.18492 0 -2.9707 10.36822 3.55205 -7.28775 -40.35567 5.44911 0.1405 14.0215 -35.82998 9.37842 65.35961 45.66756 -29.95193 1.35546 50.45573 49.82697 -8.17405 55.19122 -83.41847 -17.08965 4.04324 126.49954 -4.40918 -10.47014 -79.63699 4.17574 -3.55563 -3.2534 130.3997 -13.89042 -13.76452 -112.14912 15.48438 -6.29984 -6.93519
0.57092 0.00694 0.0117 176.05628 0 -3.16883 10.46466 3.71969 -7.19698 -40.44481 5.63914 0.56697 14.7166 -36.33339 9.66455 64.9065 50.38362 -29.33542 0.59216 48.84533 48.72699 -6.60044 53.69844 -84.55621 -17.36041 4.26414 126.24717 -4.2391 -9.95914 -79.57824 4.13589 -3.544 -3.23793 130.40053 -13.89533 -13.41279 -110.75238 15.07928 -5.32673 -6.52874
0.57035 0.007 0.01159 175.89761 0 -3.37021 10.53651 3.89809 -7.06975 -40.53312 5.82026 1.04659 15.52958 -36.92079 10.1106 64.25988 54.69394 -28.91637 0.0143 47.519 47.47542 -5.39062 51.9639 -85.86268 -17.66935 4.52108 125.93427 -4.07478 -9.54993 -79.54017 4.10139 -3.58798 -3.35712 130.40182 -13.90288 -13.00857 -109.26056 14.56991 -4.39031 -5.91763
0.56981 0.00707 0.0115 175.75949 0 -3.56559 10.61569 4.06698 -6.96113 -40.61701 6.00539 1.49715 16.28973 -37.46748 10.48091 63.69421 59.10723 -28.38157 -0.63679 46.08138 46.29402 -4.04193 50.32308 -87.1024 -17.969 4.76077 125.65369 -3.91575 -9.10416 -79.48988 4.05054 -3.60779 -3.42602 130.40287 -13.90913 -12.62437 -107.80571 14.07556 -3.44798 -5.41394
0.56926 0.00716 0.01142 175.59408 0 -3.78224 10.71067 4.25777 -6.84438 -40.72162 6.19214 1.96904 17.05089 -38.02608 10.86382 63.1525 63.90773 -27.94004 -1.34277 44.56904 45.0998 -2.58429 48.74262 -88.30528 -18.2367 5.00406 125.35005 -3.72706 -8.61724 -79.45195 4.05656 -3.62373 -3.4521 130.40408 -13.91625 -12.25232 -106.36682 13.71766 -2.45824 -4.85774
0.56872 0.00719 0.01132 175.47658 0 -3.95411 10.76678 4.40444 -6.73509 -40.78263 6.37219 2.40881 17.83646 -38.57898 11.25984 62.51679 67.78996 -27.35989 -1.88759 43.2802 43.89964 -1.43907 46.98341 -89.62081 -18.5777 5.24815 125.08158 -3.59893 -8.2406 -79.39382 3.94888 -3.66025 -3.59542 130.40505 -13.92161 -11.84623 -104.87789 13.05052 -1.57094 -4.35826
0.56824 0.00698 0.01116 175.51238 0 -4.00658 10.72517 4.42842 -6.66321 -40.72418 6.54381 2.74762 18.65893 -39.10016 11.63712 61.67234 69.21855 -26.31939 -2.02777 42.53182 42.71449 -1.066 44.77429 -91.23147 -19.12954 5.48903 124.91955 -3.65102 -8.13965 -79.26523 3.49172 -3.7449 -4.0637 130.40522 -13.92369 -11.32864 -103.25231 11.56026 -1.03407 -4.07859
0.56776 0.00671 0.01097 175.59504 0 -4.01281 10.64468 4.40705 -6.59883 -40.62162 6.70745 3.05188 19.50137 -39.6115 12.02445 60.74025 69.73379 -25.14022 -2.01187 41.99947 41.53096 -0.99446 42.39864 -92.94322 -19.74985 5.72876 124.79639 -3.76095 -8.14666 -79.11732 2.92599 -3.84754 -4.63958 130.40513 -13.9216 -10.78224 -101.58515 9.76254 -0.58951 -3.86145
0.56728 0.00647 0.0108 175.64683 0 -4.03646 10.57984 4.40486 -6.52566 -40.53885 6.86944 3.37166 20.33547 -40.12462 12.41794 59.84672 70.67207 -24.04545 -2.06941 41.37313 40.35102 -0.78574 40.1087 -94.59344 -20.32786 5.96702 124.65931 -3.83443 -8.10713 -78.98423 2.43248 -3.93849 -5.14287 130.40518 -13.92239 -10.27197 -99.95214 8.10087 -0.04923 -3.60362
0.56683 0.00619 0.01063 175.73686 0 -4.07484 10.52292 4.40879 -6.47321 -40.45746 7.05331 3.69485 21.17164 -40.65314 12.77353 58.9513 71.56349 -22.86619 -2.10996 40.74019 39.1461 -0.59126 37.76277 -96.32099 -20.95692 6.21552 124.50411 -3.95053 -8.06153 -78.82589 1.84336 -4.04559 -5.74807 130.40519 -13.92691 -9.67174 -98.25018 6.44675 0.27747 -3.38283
0.5663 0.006 0.01044 175.7602 0 -4.07224 10.44028 4.38949 -6.38075 -40.36233 7.18994 4.00104 22.00545 -41.14476 13.20614 58.04205 72.3406 -21.82851 -2.15132 40.16716 37.99722 -0.4329 35.50349 -97.90228 -21.49229 6.44123 124.3969 -3.99216 -8.05159 -78.71592 1.42653 -4.12336 -6.16832 130.40517 -13.91283 -9.24127 -96.68459 4.71066 1.00932 -3.11212
0.56558 0.00607 0.01022 175.57557 0 -3.96134 10.29875 4.31323 -6.16846 -40.24334 7.19691 4.27692 22.83787 -41.54824 13.86731 57.11289 73.02514 -21.20646 -2.23255 39.71842 36.99006 -0.3092 33.47117 -99.11451 -21.77956 6.61016 124.41128 -3.80812 -8.12487 -78.73821 1.52065 -4.10861 -6.01948 130.40523 -13.93539 -9.38862 -95.49607 2.77715 3.03965 -2.60272
0.56477 0.00623 0.00998 175.32453 0 -3.81194 10.13222 4.2158 -5.91724 -40.11128 7.15684 4.53511 23.66478 -41.91224 14.6016 56.17449 73.6274 -20.73233 -2.32088 39.31931 36.04254 -0.20874 31.54312 -100.16457 -21.96545 6.75494 124.47316 -3.54817 -8.22805 -78.81065 1.79022 -4.06454 -5.68526 130.40515 -13.92527 -9.69146 -94.44916 0.78075 5.45246 -2.05593
0.564 0.00635 0.00975 175.11231 0 -3.68441 9.97569 4.13061 -5.68896 -39.98329 7.13916 4.79575 24.48698 -42.28659 15.28933 55.24332 74.27041 -20.1958 -2.40738 38.88781 35.0766 -0.08916 29.60315 -101.2484 -22.17894 6.90672 124.51455 -3.3268 -8.30932 -78.86419 1.97384 -4.03858 -5.45735 130.40518 -13.87035 -9.85344 -93.34351 -1.15577 7.58627 -1.58588
0.56325 0.00647 0.00951 174.86581 0 -3.53693 9.82392 4.03289 -5.43875 -39.86235 7.11709 5.07871 25.34026 -42.69321 16.03302 54.29587 74.87011 -19.63477 -2.48286 38.50384 34.07333 -0.01342 27.50679 -102.5025 -22.47058 7.07518 124.55273 -3.09028 -8.42822 -78.90145 2.1801 -3.99401 -5.14363 130.40539 -14.05831 -10.30082 -92.21016 -3.23453 10.15776 -0.87376
0.56242 0.00661 0.00929 174.6736 0 -3.4223 9.65632 3.95671 -5.22487 -39.7233 7.09291 5.31154 26.12744 -43.02272 16.67835 53.38165 75.54871 -19.16097 -2.58446 38.03194 33.16274 0.14827 25.764 -103.36452 -22.57732 7.20325 124.60824 -2.86646 -8.47611 -78.98377 2.38207 -3.97982 -4.95882 130.40471 -13.74373 -10.2035 -91.1718 -5.0288 11.91359 -0.64597
0.56134 0.00677 0.0091 174.65378 0 -3.40953 9.45553 3.94645 -5.12088 -39.5452 7.07604 5.40936 26.7313 -43.15418 17.02532 52.56009 76.50146 -18.89789 -2.7624 37.28652 32.48768 0.587 24.96699 -103.16222 -22.17366 7.22503 124.70127 -2.69676 -8.30527 -79.18695 2.53088 -4.06666 -5.21265 130.40579 -11.95361 -8.45632 -90.3351 -6.01195 11.29082 -1.85313
0.56016 0.00694 0.00894 174.68955 0 -3.43111 9.23902 3.95863 -5.0547 -39.34806 7.05843 5.45764 27.2691 -43.20842 17.2723 51.7736 77.53402 -18.71672 -2.96595 36.45398 31.90515 1.10783 24.52464 -102.57482 -21.59187 7.20712 124.80963 -2.54216 -8.06406 -79.43218 2.66917 -4.18317 -5.59549 130.40531 -9.67634 -6.17521 -89.59433 -6.70631 9.84133 -3.53254
0.55904 0.0071 0.00877 174.69546 0 -3.43602 9.02704 3.95993 -4.9712 -39.15479 7.04016 5.5294 27.83843 -43.2947 17.57087 50.97161 78.5114 -18.49518 -3.15482 35.67144 31.28379 1.5708 23.92329 -102.17665 -21.10721 7.20779 124.91005 -2.37999 -7.86482 -79.65261 2.8122 -4.27939 -5.89371 130.40267 -7.6855 -4.21017 -88.82672 -7.53876 8.79129 -4.93709
0.55787 0.00728 0.00859 174.71821 0 -3.44384 8.82531 3.96324 -4.8871 -38.98134 7.02444 5.59661 28.40124 -43.39272 17.84628 50.16486 79.56648 -18.29329 -3.35715 34.84381 30.64998 2.12109 23.31374 -101.71106 -20.55 7.20526 125.01651 -2.21795 -7.62529 -79.89895 2.96297 -4.40313 -6.29358 130.4117 -5.42066 -1.94326 -87.99271 -8.34729 7.6512 -6.59339
